<?xml version="1.0" encoding="UTF-8" standalone="no"?>
<!-- Created with Inkscape (http://www.inkscape.org/) -->

<svg
   xmlns:dc="http://purl.org/dc/elements/1.1/"
   xmlns:cc="http://creativecommons.org/ns#"
   xmlns:rdf="http://www.w3.org/1999/02/22-rdf-syntax-ns#"
   xmlns:svg="http://www.w3.org/2000/svg"
   xmlns="http://www.w3.org/2000/svg"
   xmlns:sodipodi="http://sodipodi.sourceforge.net/DTD/sodipodi-0.dtd"
   xmlns:inkscape="http://www.inkscape.org/namespaces/inkscape"
   version="1.0"
   width="1400"
   height="500"
   id="svg2"
   inkscape:version="0.91 r13725"
   sodipodi:docname="gobarber logo.svg">
  <metadata
     id="metadata14">
    <rdf:RDF>
      <cc:Work
         rdf:about="">
        <dc:format>image/svg+xml</dc:format>
        <dc:type
           rdf:resource="http://purl.org/dc/dcmitype/StillImage" />
        <dc:title></dc:title>
      </cc:Work>
    </rdf:RDF>
  </metadata>
  <sodipodi:namedview
     pagecolor="#ffffff"
     bordercolor="#666666"
     borderopacity="1"
     objecttolerance="10"
     gridtolerance="10"
     guidetolerance="10"
     inkscape:pageopacity="0"
     inkscape:pageshadow="2"
     inkscape:window-width="1920"
     inkscape:window-height="1018"
     id="namedview12"
     showgrid="false"
     inkscape:zoom="1"
     inkscape:cx="704.92621"
     inkscape:cy="238.21799"
     inkscape:window-x="-8"
     inkscape:window-y="-8"
     inkscape:window-maximized="1"
     inkscape:current-layer="g9927" />
  <defs
     id="defs4" />
  <g
     transform="translate(-154.8662,-97.391246)"
     id="layer1">
    <g
       id="g9927">
      <path
         d="m 481.4375,171.65625 -134,168.5625 -4.5,24.0625 c -0.10935,7.74537 -8.67325,9.17549 -16.09375,11.4375 -23.53263,6.08261 -39.64978,10.35933 -45.5,37.34375 -39.23416,-2.65288 -60.53423,23.02583 -63.90625,59.65625 -1.88174,40.72895 33.95009,50.1733 50.34375,47.84375 23.18621,-0.37348 58.99503,-57.39084 34.28125,-92.5 2.15166,-18.08904 15.69334,-19.2528 28.9375,-20.6875 27.47458,-7.19556 30.9735,-23.49072 45.71875,-35.375 l 102.9375,-132.0625 c 12.0401,-26.57587 4.85805,-46.74435 1.78125,-68.28125 z m -212.46875,266.125 c 2.79064,0.0406 5.53475,0.66019 8.09375,1.90625 11.69828,5.69627 15.29296,22.49141 8,37.46875 -7.29295,14.97732 -22.70797,22.50877 -34.40625,16.8125 -11.69827,-5.69624 -15.29296,-22.49141 -8,-37.46875 5.69762,-11.70106 16.34593,-18.86365 26.3125,-18.71875 z"
         style="color:#000000;display:inline;overflow:visible;visibility:visible;fill:#ffffff;fill-opacity:1;fill-rule:nonzero;stroke:#5a2ca0;stroke-width:3;stroke-linecap:round;stroke-linejoin:round;stroke-miterlimit:4;stroke-dasharray:none;stroke-dashoffset:0;stroke-opacity:1;marker:none;marker-start:none;marker-mid:none;marker-end:none"
         id="path1882"
         inkscape:connector-curvature="0"
         sodipodi:nodetypes="ccccccccccccssssss" />
      <path
         d="m 239.71875,172.375 c -4.66414,27.7904 -4.6468,53.24007 6.625,73.0625 l 96.09375,123 c 4.84324,2.28201 8.55943,15.81641 12.5,27.125 11.14467,1.97665 9.0615,6.63441 26.46875,9.1875 17.61407,-0.64408 30.29177,2.53979 34.25,19.1875 -24.43542,40.19548 -9.13391,75.76217 24.625,93.34375 28.73386,8.28762 44.25427,-2.59597 51.78125,-16.40625 21.19289,-54.1042 -26.17981,-92.20995 -54,-87.8125 -9.77679,-24.59874 -19.70435,-30.41274 -45.5625,-36.125 -11.29398,-0.48551 -6.88948,-10.81066 -9.71875,-16.375 -0.65501,-16.18948 -5.31242,-16.31581 -8.5625,-22.125 z M 447.875,438.4375 c 10.17511,0.007 20.73001,7.98403 25.6875,20.40625 6.08521,15.28104 1.39451,31.53436 -10.5,36.28125 -11.90153,4.74972 -26.52347,-3.80487 -32.625,-19.09375 -6.10153,-15.28888 -1.37027,-31.53156 10.53125,-36.28125 2.23154,-0.89057 4.55815,-1.31402 6.90625,-1.3125 z"
         style="color:#000000;display:inline;overflow:visible;visibility:visible;fill:#ffffff;fill-opacity:1;fill-rule:nonzero;stroke:#5a2ca0;stroke-width:3;stroke-linecap:round;stroke-linejoin:round;stroke-miterlimit:4;stroke-dasharray:none;stroke-dashoffset:0;stroke-opacity:1;marker:none;marker-start:none;marker-mid:none;marker-end:none"
         id="path4551"
         inkscape:connector-curvature="0"
         sodipodi:nodetypes="cccccccccccccscssss" />
      <path
         d="m 377.82939,358.55807 a 15.15229,15.15229 0 1 1 -30.30458,0 15.15229,15.15229 0 1 1 30.30458,0 z"
         style="fill:#ffffff;fill-opacity:1;fill-rule:nonzero;stroke:#5a2ca0;stroke-width:3.00000024;stroke-linecap:round;stroke-linejoin:round;stroke-miterlimit:4;stroke-dasharray:none;stroke-opacity:1"
         id="path4579"
         inkscape:connector-curvature="0" />
      <path
         d="m 368.10667,358.55807 a 5.42957,5.42957 0 0 1 -10.85914,0 5.42957,5.42957 0 1 1 10.85914,0 z"
         style="fill:#ffffff;fill-opacity:1;fill-rule:nonzero;stroke:#5a2ca0;stroke-width:3;stroke-linecap:round;stroke-linejoin:round;stroke-miterlimit:4;stroke-dasharray:none;stroke-opacity:1"
         id="path4577"
         inkscape:connector-curvature="0" />
      <text
         xml:space="preserve"
         style="font-style:normal;font-variant:normal;font-weight:normal;font-stretch:normal;font-size:20px;line-height:0%;font-family:Consolas;-inkscape-font-specification:'Consolas, Normal';text-align:center;letter-spacing:0px;word-spacing:0px;writing-mode:lr-tb;text-anchor:middle;fill:#5a2ca0;fill-opacity:1;stroke:#5a2ca0;stroke-width:1px;stroke-linecap:butt;stroke-linejoin:miter;stroke-opacity:1"
         x="1031.8662"
         y="407.39124"
         id="text4142"
         sodipodi:linespacing="0%"><tspan
           sodipodi:role="line"
           id="tspan4144"
           x="1031.8662"
           y="407.39124"
           style="font-style:normal;font-variant:normal;font-weight:bold;font-stretch:normal;font-size:150px;font-family:sans-serif;-inkscape-font-specification:'sans-serif Bold';fill:#5a2ca0;stroke:#5a2ca0">GOBARBER</tspan></text>
    </g>
  </g>
</svg>
